<mxfile host="app.diagrams.net" agent="Mozilla/5.0 (X11; Linux x86_64) AppleWebKit/537.36 (KHTML, like Gecko) Chrome/131.0.0.0 Safari/537.36" version="26.0.5">
  <diagram name="Страница — 1" id="Gk-QMXh0rOFn0yV1k32W">
    <mxGraphModel dx="1366" dy="1892" grid="1" gridSize="10" guides="1" tooltips="1" connect="1" arrows="1" fold="1" page="1" pageScale="1" pageWidth="827" pageHeight="1169" math="0" shadow="0">
      <root>
        <mxCell id="0" />
        <mxCell id="1" parent="0" />
        <mxCell id="4ax_9-qUkDDM8y1Oa2na-17" style="rounded=0;orthogonalLoop=1;jettySize=auto;html=1;exitX=0;exitY=0.5;exitDx=0;exitDy=0;entryX=0.5;entryY=0;entryDx=0;entryDy=0;" edge="1" parent="1" source="4ax_9-qUkDDM8y1Oa2na-2" target="4ax_9-qUkDDM8y1Oa2na-11">
          <mxGeometry relative="1" as="geometry" />
        </mxCell>
        <mxCell id="4ax_9-qUkDDM8y1Oa2na-22" style="rounded=0;orthogonalLoop=1;jettySize=auto;html=1;exitX=1;exitY=1;exitDx=0;exitDy=0;entryX=0.5;entryY=0;entryDx=0;entryDy=0;" edge="1" parent="1" source="4ax_9-qUkDDM8y1Oa2na-2" target="4ax_9-qUkDDM8y1Oa2na-12">
          <mxGeometry relative="1" as="geometry" />
        </mxCell>
        <mxCell id="4ax_9-qUkDDM8y1Oa2na-2" value="Selecting&lt;br&gt;Action" style="ellipse;whiteSpace=wrap;html=1;aspect=fixed;" vertex="1" parent="1">
          <mxGeometry x="420" y="240" width="80" height="80" as="geometry" />
        </mxCell>
        <mxCell id="4ax_9-qUkDDM8y1Oa2na-8" style="edgeStyle=orthogonalEdgeStyle;rounded=0;orthogonalLoop=1;jettySize=auto;html=1;exitX=0.5;exitY=1;exitDx=0;exitDy=0;" edge="1" parent="1" source="4ax_9-qUkDDM8y1Oa2na-4" target="4ax_9-qUkDDM8y1Oa2na-6">
          <mxGeometry relative="1" as="geometry" />
        </mxCell>
        <mxCell id="4ax_9-qUkDDM8y1Oa2na-4" value="Enter your name" style="rounded=0;whiteSpace=wrap;html=1;" vertex="1" parent="1">
          <mxGeometry x="415" y="20" width="90" height="50" as="geometry" />
        </mxCell>
        <mxCell id="4ax_9-qUkDDM8y1Oa2na-7" style="edgeStyle=orthogonalEdgeStyle;rounded=0;orthogonalLoop=1;jettySize=auto;html=1;entryX=0.5;entryY=0;entryDx=0;entryDy=0;" edge="1" parent="1" source="4ax_9-qUkDDM8y1Oa2na-5" target="4ax_9-qUkDDM8y1Oa2na-4">
          <mxGeometry relative="1" as="geometry" />
        </mxCell>
        <mxCell id="4ax_9-qUkDDM8y1Oa2na-5" value="/start" style="ellipse;whiteSpace=wrap;html=1;aspect=fixed;fillColor=#d5e8d4;strokeColor=#82b366;" vertex="1" parent="1">
          <mxGeometry x="430" y="-110" width="60" height="60" as="geometry" />
        </mxCell>
        <mxCell id="4ax_9-qUkDDM8y1Oa2na-9" style="rounded=0;orthogonalLoop=1;jettySize=auto;html=1;exitX=0.5;exitY=1;exitDx=0;exitDy=0;" edge="1" parent="1" source="4ax_9-qUkDDM8y1Oa2na-6">
          <mxGeometry relative="1" as="geometry">
            <mxPoint x="459.71428571428555" y="240" as="targetPoint" />
          </mxGeometry>
        </mxCell>
        <mxCell id="4ax_9-qUkDDM8y1Oa2na-10" value="Information about you:" style="edgeLabel;html=1;align=center;verticalAlign=middle;resizable=0;points=[];" vertex="1" connectable="0" parent="4ax_9-qUkDDM8y1Oa2na-9">
          <mxGeometry x="-0.0418" y="2" relative="1" as="geometry">
            <mxPoint as="offset" />
          </mxGeometry>
        </mxCell>
        <mxCell id="4ax_9-qUkDDM8y1Oa2na-6" value="Enter your interests" style="rounded=0;whiteSpace=wrap;html=1;" vertex="1" parent="1">
          <mxGeometry x="415" y="90" width="90" height="50" as="geometry" />
        </mxCell>
        <mxCell id="4ax_9-qUkDDM8y1Oa2na-15" style="rounded=0;orthogonalLoop=1;jettySize=auto;html=1;exitX=0.5;exitY=1;exitDx=0;exitDy=0;entryX=0.5;entryY=0;entryDx=0;entryDy=0;" edge="1" parent="1" source="4ax_9-qUkDDM8y1Oa2na-11" target="4ax_9-qUkDDM8y1Oa2na-14">
          <mxGeometry relative="1" as="geometry" />
        </mxCell>
        <mxCell id="4ax_9-qUkDDM8y1Oa2na-11" value="show users" style="rounded=0;whiteSpace=wrap;html=1;" vertex="1" parent="1">
          <mxGeometry x="240" y="340" width="120" height="60" as="geometry" />
        </mxCell>
        <mxCell id="4ax_9-qUkDDM8y1Oa2na-12" value="start chatting" style="rounded=0;whiteSpace=wrap;html=1;" vertex="1" parent="1">
          <mxGeometry x="470" y="340" width="120" height="60" as="geometry" />
        </mxCell>
        <mxCell id="4ax_9-qUkDDM8y1Oa2na-13" value="/stop" style="rounded=0;whiteSpace=wrap;html=1;" vertex="1" parent="1">
          <mxGeometry x="620" y="340" width="120" height="60" as="geometry" />
        </mxCell>
        <mxCell id="4ax_9-qUkDDM8y1Oa2na-23" style="edgeStyle=orthogonalEdgeStyle;rounded=0;orthogonalLoop=1;jettySize=auto;html=1;exitX=0.5;exitY=1;exitDx=0;exitDy=0;entryX=0;entryY=0.5;entryDx=0;entryDy=0;" edge="1" parent="1" source="4ax_9-qUkDDM8y1Oa2na-14" target="4ax_9-qUkDDM8y1Oa2na-20">
          <mxGeometry relative="1" as="geometry" />
        </mxCell>
        <mxCell id="4ax_9-qUkDDM8y1Oa2na-24" style="rounded=0;orthogonalLoop=1;jettySize=auto;html=1;entryX=0.5;entryY=0;entryDx=0;entryDy=0;" edge="1" parent="1" source="4ax_9-qUkDDM8y1Oa2na-14" target="4ax_9-qUkDDM8y1Oa2na-16">
          <mxGeometry relative="1" as="geometry" />
        </mxCell>
        <mxCell id="4ax_9-qUkDDM8y1Oa2na-25" value="Showi information about users" style="edgeLabel;html=1;align=center;verticalAlign=middle;resizable=0;points=[];" vertex="1" connectable="0" parent="4ax_9-qUkDDM8y1Oa2na-24">
          <mxGeometry x="-0.0493" y="-1" relative="1" as="geometry">
            <mxPoint as="offset" />
          </mxGeometry>
        </mxCell>
        <mxCell id="4ax_9-qUkDDM8y1Oa2na-14" value="Selecting user" style="ellipse;whiteSpace=wrap;html=1;aspect=fixed;" vertex="1" parent="1">
          <mxGeometry x="260" y="440" width="80" height="80" as="geometry" />
        </mxCell>
        <mxCell id="4ax_9-qUkDDM8y1Oa2na-16" value="chat with chosen user" style="rounded=0;whiteSpace=wrap;html=1;" vertex="1" parent="1">
          <mxGeometry x="120" y="550" width="120" height="60" as="geometry" />
        </mxCell>
        <mxCell id="4ax_9-qUkDDM8y1Oa2na-19" style="rounded=0;orthogonalLoop=1;jettySize=auto;html=1;exitX=1;exitY=0.5;exitDx=0;exitDy=0;entryX=0.561;entryY=0.038;entryDx=0;entryDy=0;entryPerimeter=0;" edge="1" parent="1" source="4ax_9-qUkDDM8y1Oa2na-2" target="4ax_9-qUkDDM8y1Oa2na-13">
          <mxGeometry relative="1" as="geometry" />
        </mxCell>
        <mxCell id="4ax_9-qUkDDM8y1Oa2na-21" style="rounded=0;orthogonalLoop=1;jettySize=auto;html=1;entryX=0;entryY=1;entryDx=0;entryDy=0;" edge="1" parent="1" source="4ax_9-qUkDDM8y1Oa2na-20" target="4ax_9-qUkDDM8y1Oa2na-2">
          <mxGeometry relative="1" as="geometry" />
        </mxCell>
        <mxCell id="4ax_9-qUkDDM8y1Oa2na-20" value="Back" style="rounded=0;whiteSpace=wrap;html=1;" vertex="1" parent="1">
          <mxGeometry x="353" y="550" width="120" height="60" as="geometry" />
        </mxCell>
      </root>
    </mxGraphModel>
  </diagram>
</mxfile>
